<svg width="147" height="45" viewBox="0 0 147 45" fill="none" xmlns="http://www.w3.org/2000/svg">
<path d="M20.8367 0.222923C20.398 0.408512 16.062 3.79975 7.67667 10.5316C6.47877 11.4933 4.42041 13.1299 3.12128 14.159C0.168718 16.5042 0 16.7067 0 17.5334C0 18.0396 0.101231 18.2589 0.523026 18.6132C1.01231 19.035 1.11354 19.0519 3.22252 19.0519H5.39898L5.43272 27.3528L5.48334 35.6706L7.50795 35.7212C9.49883 35.7718 11.0173 35.62 12.4345 35.215L13.16 35.0126L13.1938 28.4495L13.2444 21.8863L22.3214 21.8357L31.3816 21.7851V25.9862V30.1872H31.9552C33.5243 30.1872 37.3036 30.8284 38.5521 31.3008C38.7714 31.3851 38.8052 30.7103 38.8052 25.2269V19.0519H41.0828C43.3437 19.0519 43.3774 19.0519 43.7992 18.5963C44.3391 18.0227 44.4572 17.4828 44.2041 16.8754C44.0692 16.5548 42.4832 15.1882 39.4463 12.7924C36.9324 10.8015 33.2375 7.88272 31.2297 6.31365C24.9534 1.35334 23.5699 0.290409 23.165 0.138565C22.5913 -0.0807686 21.4272 -0.0301552 20.8367 0.222923ZM30.3861 10.7003C31.3309 11.5945 31.3816 11.8813 31.3816 16.5211V20.739H22.2708H13.1431L13.1938 16.2849C13.2444 11.3077 13.2444 11.3583 14.5098 10.481L15.0834 10.0929L22.4564 10.1435L29.8462 10.1942L30.3861 10.7003Z" fill="white"/>
<path d="M16.0618 16.3027L16.1125 18.631H16.6186H17.1248V16.3533V14.0756L16.568 14.025L16.0112 13.9744L16.0618 16.3027Z" fill="white"/>
<path d="M126.944 9.67038C125.138 10.4634 125.341 13.0447 127.247 13.4665C128.783 13.8208 130.065 13.0785 130.2 11.7794C130.369 10.0753 128.614 8.94489 126.944 9.67038Z" fill="white"/>
<path d="M64.1129 9.87362C61.3459 10.1773 59.3381 11.0546 57.7353 12.6743C55.3901 15.0533 54.5972 16.9766 54.5972 20.3173C54.5972 22.325 54.8502 23.4892 55.6263 25.0414C57.7691 29.2425 62.7294 31.4695 67.5885 30.3897C69.7818 29.9005 71.1822 29.1581 72.6331 27.7409C73.966 26.4249 74.5565 25.48 75.1976 23.6073C75.5857 22.5275 75.6363 22.0551 75.6363 20.3173C75.6363 18.6638 75.5688 18.0902 75.2651 17.196C73.7129 12.6743 70.4904 10.1942 65.8 9.89049C65.1927 9.83988 64.4334 9.83988 64.1129 9.87362ZM67.3691 13.9903C72.3294 15.8462 72.65 23.911 67.8415 26.2561C66.9979 26.6779 66.728 26.7286 65.1252 26.7286C63.4717 26.7286 63.2861 26.6948 62.3245 26.1887C59.9793 24.9739 58.6633 22.3419 58.967 19.4905C59.2369 17.0273 60.3842 15.222 62.3245 14.2265C63.8767 13.4167 65.6145 13.3323 67.3691 13.9903Z" fill="white"/>
<path d="M82.9587 15.0708C79.1795 16.1674 76.9693 20.166 77.7791 24.4515C78.1672 26.4761 79.6013 28.4838 81.3897 29.4962C83.6842 30.8122 87.0417 30.829 89.2182 29.5636C90.0786 29.0575 91.7827 27.4209 91.7827 27.1004C91.7827 26.9991 91.1584 26.493 90.4161 25.9868L89.0495 25.0926L88.5264 25.5988C87.7503 26.3243 86.9742 26.6617 85.8776 26.7629C83.4312 26.9991 81.7946 25.3626 81.7777 22.6968C81.7777 21.3808 82.0308 20.6216 82.7563 19.7611C84.1735 18.0739 87.1092 18.0065 88.5602 19.643L89.0495 20.2167L90.4161 19.3393C91.1584 18.85 91.7658 18.3776 91.7658 18.2764C91.7996 17.804 89.8593 16.1337 88.6108 15.5432C87.4466 14.9864 87.2104 14.9358 85.557 14.8852C84.3928 14.8683 83.4818 14.9189 82.9587 15.0708Z" fill="white"/>
<path d="M114.543 15.2214C113.547 15.6432 112.737 16.1494 112.366 16.6049C112.012 17.0436 111.877 16.8917 111.826 15.9638L111.776 15.0865L109.886 15.0358L107.979 14.9852V24.5347V34.0841L109.97 34.0335L111.944 33.9829L111.995 31.334L112.046 28.6683L113.024 29.3431C114.425 30.3048 116.129 30.676 117.799 30.3892C121.308 29.7818 123.485 26.863 123.502 22.7463C123.502 19.3382 121.966 16.5206 119.469 15.3733C118.086 14.7321 115.859 14.6647 114.543 15.2214ZM116.668 18.562C117.613 18.8151 118.811 20.0974 119.098 21.1266C119.25 21.6158 119.3 22.4088 119.25 23.1681C119.149 24.6865 118.609 25.7494 117.563 26.4412C116.938 26.8461 116.702 26.8967 115.42 26.8967C114.121 26.8967 113.885 26.8461 113.26 26.4412C112.096 25.682 112.029 25.4964 112.029 23.0499C112.029 21.1266 112.079 20.7891 112.4 20.2155C112.805 19.49 113.26 19.1188 114.306 18.6802C115.099 18.3427 115.741 18.309 116.668 18.562Z" fill="white"/>
<path d="M93.1998 15.2223C93.1492 15.3573 93.1492 16.1672 93.1661 17.0445L93.2167 18.6304L95.3257 18.6473L97.4347 18.6642L97.4853 24.4343L97.519 30.1876H99.4593H101.4V24.4512C101.4 19.9802 101.45 18.7148 101.619 18.6979C101.72 18.6979 102.749 18.6979 103.897 18.7148L105.955 18.7317V16.8758V15.003H99.628C94.5158 15.003 93.2673 15.0536 93.1998 15.2223Z" fill="white"/>
<path d="M125.982 15.1042C125.914 15.1717 125.864 18.5967 125.864 22.7134V30.1876H127.888H129.913L129.879 22.6291L129.829 15.0874L127.956 15.0367C126.944 15.0199 126.049 15.0536 125.982 15.1042Z" fill="white"/>
<path d="M133.119 22.5784V30.1876H137.303C141.875 30.1876 143.208 30.0358 144.423 29.4284C145.975 28.6354 146.532 27.5388 146.414 25.531C146.312 24.0632 145.84 23.2196 144.743 22.6122L144.052 22.2241L144.642 21.7349C145.384 21.1275 145.941 19.9971 145.941 19.1197C145.941 18.2593 145.283 16.8758 144.625 16.319C144.322 16.0659 143.647 15.6947 143.124 15.4923C142.213 15.1211 141.858 15.1042 137.64 15.0367L133.119 14.9693V22.5784ZM141.15 18.2593C141.841 18.6136 142.145 19.4234 141.841 20.0477C141.487 20.8069 140.677 21.0769 138.737 21.0769H136.999V19.5921C136.999 18.7654 137.05 18.0568 137.1 17.9893C137.337 17.77 140.627 17.9893 141.15 18.2593ZM141.892 24.0632C143.157 24.8055 142.938 26.5771 141.521 26.9989C141.217 27.0832 140.07 27.1507 138.99 27.1507H136.999V25.4635V23.7763H139.209C140.964 23.7763 141.521 23.827 141.892 24.0632Z" fill="white"/>
<path d="M16.2477 24.0451C16.0789 24.1126 16.0283 24.9225 16.0283 27.2508V30.3552L16.467 30.4564C16.7032 30.5239 16.9731 30.4902 17.0575 30.4058C17.1419 30.3214 17.1925 28.9379 17.1756 27.1327C17.125 24.1632 17.1081 24.0283 16.7876 23.9945C16.602 23.9776 16.3489 24.0114 16.2477 24.0451Z" fill="white"/>
<path d="M28.2603 32.1613C25.2234 32.5494 23.3337 33.0893 18.8121 34.8608C16.2982 35.8563 13.8518 36.683 12.7382 36.936C11.2704 37.2566 8.48652 37.6109 7.33924 37.6109C5.66893 37.6109 2.64887 37.0373 1.1979 36.4468C0.539898 36.1768 0 36.0081 0 36.0756C0 36.4299 1.11354 37.999 1.87277 38.7413C5.1459 41.9132 9.49883 43.2967 14.7797 42.8412C17.9685 42.5544 20.0437 41.8964 25.4764 39.4162C29.1545 37.7459 29.3738 37.6615 31.0441 37.0879C35.6164 35.5019 39.8512 35.8731 43.1243 38.1339C43.8836 38.657 43.9004 38.657 43.7823 38.2689C43.3605 36.8517 41.8758 35.0801 40.2393 34.0004C38.9739 33.1568 36.8143 32.465 34.4691 32.1445C32.1745 31.8239 30.7573 31.8239 28.2603 32.1613Z" fill="white"/>
<path d="M143.337 41.5778V37.8458H144.942C145.347 37.8458 145.665 37.9276 145.896 38.0911C146.127 38.2546 146.243 38.4927 146.243 38.8055C146.243 39.1111 146.133 39.3457 145.912 39.5092C145.692 39.6692 145.402 39.7491 145.043 39.7491L145.139 39.5892C145.555 39.5892 145.873 39.6727 146.094 39.8398C146.318 40.0033 146.43 40.2432 146.43 40.5595C146.43 40.8794 146.312 41.13 146.078 41.3112C145.847 41.4889 145.502 41.5778 145.043 41.5778H143.337ZM143.865 41.1566H145.033C145.317 41.1566 145.53 41.1051 145.673 41.002C145.818 40.8954 145.891 40.7337 145.891 40.5169C145.891 40.3 145.818 40.1419 145.673 40.0424C145.53 39.9428 145.317 39.8931 145.033 39.8931H143.865V41.1566ZM143.865 39.4879H144.905C145.164 39.4879 145.362 39.4364 145.497 39.3333C145.635 39.2302 145.705 39.0792 145.705 38.8801C145.705 38.6775 145.635 38.5247 145.497 38.4216C145.362 38.3185 145.164 38.267 144.905 38.267H143.865V39.4879Z" fill="white"/>
<path d="M141.646 41.5778V37.8458H142.173V41.5778H141.646Z" fill="white"/>
<path d="M137.256 41.6205C137.203 41.6205 137.149 41.6169 137.096 41.6098C137.043 41.6027 136.984 41.592 136.92 41.5778L136.957 41.1033C137.014 41.1175 137.071 41.1246 137.128 41.1246C137.284 41.1246 137.409 41.0624 137.501 40.938C137.594 40.8136 137.661 40.6253 137.704 40.3729C137.75 40.1206 137.78 39.8024 137.795 39.4186L137.853 37.8458H140.482V41.5778H139.959V38.171L140.087 38.3097H138.194L138.312 38.1657L138.269 39.4026C138.258 39.7722 138.233 40.0957 138.194 40.3729C138.155 40.6501 138.097 40.8812 138.018 41.066C137.94 41.2508 137.839 41.3894 137.715 41.4818C137.594 41.5742 137.441 41.6205 137.256 41.6205Z" fill="white"/>
<path d="M133.627 41.5778V37.8458H136.442V38.299H134.155V39.3653H135.317C135.761 39.3653 136.099 39.4577 136.33 39.6425C136.561 39.8273 136.676 40.0957 136.676 40.4475C136.676 40.8101 136.55 41.0891 136.298 41.2846C136.049 41.4801 135.692 41.5778 135.226 41.5778H133.627ZM134.155 41.1566H135.205C135.514 41.1566 135.747 41.098 135.903 40.9807C136.063 40.8634 136.143 40.6892 136.143 40.4582C136.143 40.0104 135.83 39.7865 135.205 39.7865H134.155V41.1566Z" fill="white"/>
<path d="M130.566 39.4559H132.486V39.9091H130.566V39.4559ZM130.614 41.114H132.79V41.5778H130.081V37.8458H132.715V38.3097H130.614V41.114Z" fill="white"/>
<path d="M124.947 41.5778V37.8458H125.384L127.058 40.6661H126.823L128.476 37.8458H128.913L128.918 41.5778H128.407L128.401 38.6509H128.524L127.052 41.1246H126.807L125.325 38.6509H125.458V41.5778H124.947Z" fill="white"/>
<path d="M118.959 41.5778L120.649 37.8458H121.177L122.872 41.5778H122.312L120.803 38.1444H121.017L119.508 41.5778H118.959ZM119.678 40.6448L119.822 40.2183H121.923L122.078 40.6448H119.678Z" fill="white"/>
<path d="M117.214 41.5778V38.171L117.347 38.3097H115.94V37.8458H119.016V38.3097H117.608L117.736 38.171V41.5778H117.214Z" fill="white"/>
<path d="M110.629 41.5778V37.8458H111.157V40.7248L113.364 37.8458H113.855V41.5778H113.332V38.7042L111.12 41.5778H110.629Z" fill="white"/>
<path d="M109.476 41.5778L108.122 39.7385L108.554 39.4719L110.084 41.5778H109.476ZM106.965 41.5778V37.8458H107.488V41.5778H106.965ZM107.328 39.9357V39.4666H108.538V39.9357H107.328ZM108.602 39.7705L108.111 39.6958L109.45 37.8458H110.02L108.602 39.7705Z" fill="white"/>
<path d="M105.273 41.5778V37.8458H105.801V41.5778H105.273Z" fill="white"/>
<path d="M103.575 37.8458H104.108V41.5778H103.575V37.8458ZM101.432 41.5778H100.898V37.8458H101.432V41.5778ZM103.623 39.9144H101.378V39.4506H103.623V39.9144Z" fill="white"/>
<path d="M97.0626 37.8458H97.6757L98.6513 39.2107L99.627 37.8458H100.251L98.9872 39.6372L100.352 41.5778H99.7229L98.6513 40.0903L97.585 41.5778H96.9719L98.3314 39.6585L97.0626 37.8458Z" fill="white"/>
<path d="M94.4439 39.4559H96.3632V39.9091H94.4439V39.4559ZM94.4919 41.114H96.6671V41.5778H93.9587V37.8458H96.5924V38.3097H94.4919V41.114Z" fill="white"/>
<path d="M91.5081 41.5778V38.171L91.6414 38.3097H90.2339V37.8458H93.3101V38.3097H91.9026L92.0306 38.171V41.5778H91.5081Z" fill="white"/>
<path d="M87.6432 41.5801V37.8481H88.1764V41.5801H87.6432ZM88.4056 37.4536C88.331 37.4536 88.2652 37.4287 88.2084 37.3789C88.1551 37.3256 88.1284 37.2598 88.1284 37.1817C88.1284 37.0999 88.1551 37.0342 88.2084 36.9844C88.2652 36.9311 88.331 36.9044 88.4056 36.9044C88.4803 36.9044 88.5442 36.9311 88.5976 36.9844C88.6509 37.0342 88.6775 37.0999 88.6775 37.1817C88.6775 37.2598 88.6509 37.3256 88.5976 37.3789C88.5442 37.4287 88.4803 37.4536 88.4056 37.4536ZM87.414 37.4536C87.3394 37.4536 87.2754 37.4287 87.2221 37.3789C87.1687 37.3256 87.1421 37.2598 87.1421 37.1817C87.1421 37.0999 87.1687 37.0342 87.2221 36.9844C87.2754 36.9311 87.3394 36.9044 87.414 36.9044C87.4886 36.9044 87.5526 36.9311 87.6059 36.9844C87.6592 37.0342 87.6859 37.0999 87.6859 37.1817C87.6859 37.2598 87.6592 37.3256 87.6059 37.3789C87.5526 37.4287 87.4886 37.4536 87.414 37.4536Z" fill="white"/>
<path d="M84.825 41.6201C84.5407 41.6201 84.2759 41.5722 84.0307 41.4762C83.789 41.3802 83.5793 41.2469 83.4016 41.0763C83.2238 40.9022 83.0852 40.6996 82.9857 40.4686C82.8862 40.2375 82.8364 39.9852 82.8364 39.7115C82.8364 39.4378 82.8862 39.1855 82.9857 38.9544C83.0852 38.7234 83.2238 38.5226 83.4016 38.352C83.5793 38.1778 83.789 38.0428 84.0307 37.9468C84.2723 37.8508 84.5371 37.8029 84.825 37.8029C85.1094 37.8029 85.3706 37.8508 85.6087 37.9468C85.8504 38.0392 86.0601 38.1725 86.2379 38.3467C86.4191 38.5173 86.5577 38.7181 86.6537 38.9491C86.7532 39.1801 86.803 39.4343 86.803 39.7115C86.803 39.9887 86.7532 40.2429 86.6537 40.4739C86.5577 40.7049 86.4191 40.9075 86.2379 41.0817C86.0601 41.2523 85.8504 41.3856 85.6087 41.4815C85.3706 41.5739 85.1094 41.6201 84.825 41.6201ZM84.825 41.1456C85.0312 41.1456 85.2213 41.1101 85.3955 41.039C85.5732 40.9679 85.726 40.8684 85.854 40.7405C85.9855 40.6089 86.0868 40.4561 86.1579 40.282C86.2325 40.1078 86.2698 39.9176 86.2698 39.7115C86.2698 39.5054 86.2325 39.3152 86.1579 39.141C86.0868 38.9669 85.9855 38.8158 85.854 38.6879C85.726 38.5564 85.5732 38.4551 85.3955 38.384C85.2213 38.3129 85.0312 38.2774 84.825 38.2774C84.6153 38.2774 84.4216 38.3129 84.2439 38.384C84.0698 38.4551 83.9169 38.5564 83.7854 38.6879C83.6539 38.8158 83.5508 38.9669 83.4762 39.141C83.4051 39.3152 83.3696 39.5054 83.3696 39.7115C83.3696 39.9176 83.4051 40.1078 83.4762 40.282C83.5508 40.4561 83.6539 40.6089 83.7854 40.7405C83.9169 40.8684 84.0698 40.9679 84.2439 41.039C84.4216 41.1101 84.6153 41.1456 84.825 41.1456Z" fill="white"/>
<path d="M79.1619 41.5778V37.8458H80.7666C81.1718 37.8458 81.4899 37.9276 81.7209 38.0911C81.952 38.2546 82.0675 38.4927 82.0675 38.8055C82.0675 39.1111 81.9573 39.3457 81.7369 39.5092C81.5166 39.6692 81.2269 39.7491 80.8679 39.7491L80.9639 39.5892C81.3797 39.5892 81.6978 39.6727 81.9182 39.8398C82.1421 40.0033 82.2541 40.2432 82.2541 40.5595C82.2541 40.8794 82.1368 41.13 81.9022 41.3112C81.6712 41.4889 81.3264 41.5778 80.8679 41.5778H79.1619ZM79.6897 41.1566H80.8572C81.1416 41.1566 81.3548 41.1051 81.497 41.002C81.6427 40.8954 81.7156 40.7337 81.7156 40.5169C81.7156 40.3 81.6427 40.1419 81.497 40.0424C81.3548 39.9428 81.1416 39.8931 80.8572 39.8931H79.6897V41.1566ZM79.6897 39.4879H80.7293C80.9888 39.4879 81.186 39.4364 81.3211 39.3333C81.4597 39.2302 81.529 39.0792 81.529 38.8801C81.529 38.6775 81.4597 38.5247 81.3211 38.4216C81.186 38.3185 80.9888 38.267 80.7293 38.267H79.6897V39.4879Z" fill="white"/>
<path d="M76.3221 41.6201C76.0378 41.6201 75.773 41.5722 75.5277 41.4762C75.286 41.3802 75.0763 41.2469 74.8986 41.0763C74.7209 40.9022 74.5823 40.6996 74.4828 40.4686C74.3833 40.2375 74.3335 39.9852 74.3335 39.7115C74.3335 39.4378 74.3833 39.1855 74.4828 38.9544C74.5823 38.7234 74.7209 38.5226 74.8986 38.352C75.0763 38.1778 75.286 38.0428 75.5277 37.9468C75.7694 37.8508 76.0342 37.8029 76.3221 37.8029C76.6064 37.8029 76.8677 37.8508 77.1058 37.9468C77.3475 38.0392 77.5572 38.1725 77.7349 38.3467C77.9162 38.5173 78.0548 38.7181 78.1508 38.9491C78.2503 39.1801 78.3001 39.4343 78.3001 39.7115C78.3001 39.9887 78.2503 40.2429 78.1508 40.4739C78.0548 40.7049 77.9162 40.9075 77.7349 41.0817C77.5572 41.2523 77.3475 41.3856 77.1058 41.4815C76.8677 41.5739 76.6064 41.6201 76.3221 41.6201ZM76.3221 41.1456C76.5283 41.1456 76.7184 41.1101 76.8926 41.039C77.0703 40.9679 77.2231 40.8684 77.3511 40.7405C77.4826 40.6089 77.5839 40.4561 77.655 40.282C77.7296 40.1078 77.7669 39.9176 77.7669 39.7115C77.7669 39.5054 77.7296 39.3152 77.655 39.141C77.5839 38.9669 77.4826 38.8158 77.3511 38.6879C77.2231 38.5564 77.0703 38.4551 76.8926 38.384C76.7184 38.3129 76.5283 38.2774 76.3221 38.2774C76.1124 38.2774 75.9187 38.3129 75.741 38.384C75.5668 38.4551 75.414 38.5564 75.2825 38.6879C75.151 38.8158 75.0479 38.9669 74.9733 39.141C74.9022 39.3152 74.8666 39.5054 74.8666 39.7115C74.8666 39.9176 74.9022 40.1078 74.9733 40.282C75.0479 40.4561 75.151 40.6089 75.2825 40.7405C75.414 40.8684 75.5668 40.9679 75.741 41.039C75.9187 41.1101 76.1124 41.1456 76.3221 41.1456Z" fill="white"/>
<path d="M72.2459 41.5778V38.171L72.3792 38.3097H70.9717V37.8458H74.0479V38.3097H72.6404L72.7684 38.171V41.5778H72.2459Z" fill="white"/>
<path d="M67.8267 41.1086C68.0115 41.1762 68.1821 41.1939 68.3385 41.162C68.4949 41.1264 68.6353 41.0073 68.7597 40.8047L68.941 40.5169L68.9943 40.4582L70.3645 37.8458H70.8923L69.2342 40.9167C69.1098 41.1513 68.9641 41.329 68.797 41.4498C68.6335 41.5671 68.4558 41.6311 68.2639 41.6418C68.0755 41.656 67.8836 41.6205 67.6881 41.5352L67.8267 41.1086ZM68.9783 40.9327L67.3416 37.8458H67.912L69.2715 40.5062L68.9783 40.9327Z" fill="white"/>
<path d="M64.0581 41.5778V37.8458H66.8731V38.299H64.5859V39.3653H65.7482C66.1924 39.3653 66.5301 39.4577 66.7611 39.6425C66.9921 39.8273 67.1077 40.0957 67.1077 40.4475C67.1077 40.8101 66.9815 41.0891 66.7291 41.2846C66.4803 41.4801 66.1231 41.5778 65.6575 41.5778H64.0581ZM64.5859 41.1566H65.6362C65.9454 41.1566 66.1782 41.098 66.3346 40.9807C66.4945 40.8634 66.5745 40.6892 66.5745 40.4582C66.5745 40.0104 66.2617 39.7865 65.6362 39.7865H64.5859V41.1566Z" fill="white"/>
<path d="M61.2186 41.6201C60.9342 41.6201 60.6695 41.5722 60.4242 41.4762C60.1825 41.3802 59.9728 41.2469 59.7951 41.0763C59.6174 40.9022 59.4788 40.6996 59.3793 40.4686C59.2797 40.2375 59.23 39.9852 59.23 39.7115C59.23 39.4378 59.2797 39.1855 59.3793 38.9544C59.4788 38.7234 59.6174 38.5226 59.7951 38.352C59.9728 38.1778 60.1825 38.0428 60.4242 37.9468C60.6659 37.8508 60.9307 37.8029 61.2186 37.8029C61.5029 37.8029 61.7642 37.8508 62.0023 37.9468C62.244 38.0392 62.4537 38.1725 62.6314 38.3467C62.8127 38.5173 62.9513 38.7181 63.0473 38.9491C63.1468 39.1801 63.1965 39.4343 63.1965 39.7115C63.1965 39.9887 63.1468 40.2429 63.0473 40.4739C62.9513 40.7049 62.8127 40.9075 62.6314 41.0817C62.4537 41.2523 62.244 41.3856 62.0023 41.4815C61.7642 41.5739 61.5029 41.6201 61.2186 41.6201ZM61.2186 41.1456C61.4247 41.1456 61.6149 41.1101 61.789 41.039C61.9668 40.9679 62.1196 40.8684 62.2475 40.7405C62.3791 40.6089 62.4804 40.4561 62.5514 40.282C62.6261 40.1078 62.6634 39.9176 62.6634 39.7115C62.6634 39.5054 62.6261 39.3152 62.5514 39.141C62.4804 38.9669 62.3791 38.8158 62.2475 38.6879C62.1196 38.5564 61.9668 38.4551 61.789 38.384C61.6149 38.3129 61.4247 38.2774 61.2186 38.2774C61.0089 38.2774 60.8152 38.3129 60.6375 38.384C60.4633 38.4551 60.3105 38.5564 60.179 38.6879C60.0475 38.8158 59.9444 38.9669 59.8697 39.141C59.7987 39.3152 59.7631 39.5054 59.7631 39.7115C59.7631 39.9176 59.7987 40.1078 59.8697 40.282C59.9444 40.4561 60.0475 40.6089 60.179 40.7405C60.3105 40.8684 60.4633 40.9679 60.6375 41.039C60.8152 41.1101 61.0089 41.1456 61.2186 41.1456Z" fill="white"/>
<path d="M55.1602 41.5778V37.8458H58.375V41.5778H57.8525V38.171L57.9805 38.3097H55.5547L55.688 38.171V41.5778H55.1602Z" fill="white"/>
<path d="M33.0688 38.6233C31.5335 39.0113 29.4245 39.8718 25.409 41.7952C23.7218 42.5882 21.5622 43.5161 20.6005 43.8704C18.6603 44.5453 18.6603 44.5622 20.8367 44.8827C24.1099 45.3551 28.1253 44.4103 33.4906 41.8964C35.8695 40.7997 37.3374 40.4286 39.5644 40.4117C40.678 40.3948 41.8421 40.4454 42.1627 40.5298C42.7363 40.6479 42.7363 40.6479 42.4158 40.2936C41.9265 39.7537 39.8513 38.8257 38.4846 38.5389C36.8987 38.2015 34.6547 38.2352 33.0688 38.6233Z" fill="white"/>
</svg>
