<svg width="36" height="36" viewBox="0 0 36 36" fill="none" xmlns="http://www.w3.org/2000/svg">
<rect x="0.580645" y="0.580645" width="34.8387" height="34.8387" rx="2.90323" stroke="white" stroke-opacity="0.2" stroke-width="1.16129"/>
<path d="M19.6411 20.2213C19.6411 20.2213 19.7545 20.1079 19.9814 19.881C20.2082 19.6542 20.3216 19.2203 20.3216 18.5791C20.3216 17.938 20.0948 17.3906 19.6411 16.937C19.1875 16.4834 18.6401 16.2566 17.999 16.2566C17.3579 16.2566 16.8105 16.4834 16.3569 16.937C15.9032 17.3906 15.6764 17.938 15.6764 18.5791C15.6764 19.2203 15.9032 19.7676 16.3569 20.2213C16.8105 20.6749 17.3579 20.9017 17.999 20.9017C18.6401 20.9017 19.1875 20.6749 19.6411 20.2213ZM20.5302 16.0479C20.5302 16.0479 20.7041 16.2218 21.0519 16.5696C21.3997 16.9173 21.5736 17.5872 21.5736 18.5791C21.5736 19.5711 21.2258 20.4148 20.5302 21.1104C19.8347 21.8059 18.9909 22.1537 17.999 22.1537C17.0071 22.1537 16.1633 21.8059 15.4677 21.1104C14.7722 20.4148 14.4244 19.5711 14.4244 18.5791C14.4244 17.5872 14.7722 16.7434 15.4677 16.0479C16.1633 15.3523 17.0071 15.0045 17.999 15.0045C18.9909 15.0045 19.8347 15.3523 20.5302 16.0479ZM22.3085 14.2697C22.3085 14.2697 22.3493 14.3105 22.4309 14.3921C22.5126 14.4738 22.5534 14.6295 22.5534 14.8594C22.5534 15.0892 22.4718 15.2858 22.3085 15.4491C22.1452 15.6124 21.9486 15.6941 21.7188 15.6941C21.4889 15.6941 21.2923 15.6124 21.129 15.4491C20.9657 15.2858 20.8841 15.0892 20.8841 14.8594C20.8841 14.6295 20.9657 14.433 21.129 14.2697C21.2923 14.1064 21.4889 14.0247 21.7188 14.0247C21.9486 14.0247 22.1452 14.1064 22.3085 14.2697ZM18.693 12.8589C18.693 12.8589 18.588 12.8596 18.3778 12.8611C18.1676 12.8627 18.0413 12.8634 17.999 12.8634C17.9567 12.8634 17.7253 12.8619 17.3049 12.8589C16.8846 12.8558 16.5655 12.8558 16.3478 12.8589C16.13 12.8619 15.8382 12.871 15.4723 12.8861C15.1064 12.9012 14.7949 12.9315 14.5378 12.9768C14.2807 13.0222 14.0645 13.0781 13.8891 13.1447C13.5867 13.2656 13.3206 13.441 13.0907 13.6709C12.8609 13.9007 12.6855 14.1668 12.5645 14.4693C12.498 14.6447 12.442 14.8609 12.3967 15.1179C12.3513 15.375 12.3211 15.6865 12.3059 16.0524C12.2908 16.4183 12.2818 16.7102 12.2787 16.9279C12.2757 17.1457 12.2757 17.4647 12.2787 17.8851C12.2818 18.3054 12.2833 18.5368 12.2833 18.5791C12.2833 18.6215 12.2818 18.8528 12.2787 19.2732C12.2757 19.6935 12.2757 20.0126 12.2787 20.2303C12.2818 20.4481 12.2908 20.7399 12.3059 21.1058C12.3211 21.4718 12.3513 21.7833 12.3967 22.0403C12.442 22.2974 12.498 22.5136 12.5645 22.689C12.6855 22.9914 12.8609 23.2576 13.0907 23.4874C13.3206 23.7172 13.5867 23.8926 13.8891 24.0136C14.0645 24.0801 14.2807 24.1361 14.5378 24.1815C14.7949 24.2268 15.1064 24.2571 15.4723 24.2722C15.8382 24.2873 16.13 24.2964 16.3478 24.2994C16.5655 24.3024 16.8846 24.3024 17.3049 24.2994C17.7253 24.2964 17.9567 24.2949 17.999 24.2949C18.0413 24.2949 18.2727 24.2964 18.693 24.2994C19.1134 24.3024 19.4325 24.3024 19.6502 24.2994C19.8679 24.2964 20.1598 24.2873 20.5257 24.2722C20.8916 24.2571 21.2031 24.2268 21.4602 24.1815C21.7172 24.1361 21.9335 24.0801 22.1089 24.0136C22.4113 23.8926 22.6774 23.7172 22.9073 23.4874C23.1371 23.2576 23.3125 22.9914 23.4335 22.689C23.5 22.5136 23.5559 22.2974 23.6013 22.0403C23.6467 21.7833 23.6769 21.4718 23.692 21.1058C23.7072 20.7399 23.7162 20.4481 23.7193 20.2303C23.7223 20.0126 23.7223 19.6935 23.7193 19.2732C23.7162 18.8528 23.7147 18.6215 23.7147 18.5791C23.7147 18.5368 23.7162 18.3054 23.7193 17.8851C23.7223 17.4647 23.7223 17.1457 23.7193 16.9279C23.7162 16.7102 23.7072 16.4183 23.692 16.0524C23.6769 15.6865 23.6467 15.375 23.6013 15.1179C23.5559 14.8609 23.5 14.6447 23.4335 14.4693C23.3125 14.1668 23.1371 13.9007 22.9073 13.6709C22.6774 13.441 22.4113 13.2656 22.1089 13.1447C21.9335 13.0781 21.7172 13.0222 21.4602 12.9768C21.2031 12.9315 20.8916 12.9012 20.5257 12.8861C20.1598 12.871 19.8679 12.8619 19.6502 12.8589C19.4325 12.8558 19.1134 12.8558 18.693 12.8589ZM24.9214 15.7031C24.9516 16.2354 24.9667 17.1941 24.9667 18.5791C24.9667 19.9642 24.9516 20.9229 24.9214 21.4551C24.8609 22.7132 24.4859 23.687 23.7964 24.3765C23.1069 25.066 22.1331 25.441 20.875 25.5015C20.3427 25.5318 19.3841 25.5469 17.999 25.5469C16.6139 25.5469 15.6552 25.5318 15.123 25.5015C13.8649 25.441 12.8911 25.066 12.2016 24.3765C11.5121 23.687 11.1371 22.7132 11.0766 21.4551C11.0464 20.9229 11.0312 19.9642 11.0312 18.5791C11.0312 17.1941 11.0464 16.2354 11.0766 15.7031C11.1371 14.4451 11.5121 13.4713 12.2016 12.7818C12.8911 12.0922 13.8649 11.7172 15.123 11.6568C15.6552 11.6265 16.6139 11.6114 17.999 11.6114C19.3841 11.6114 20.3427 11.6265 20.875 11.6568C22.1331 11.7172 23.1069 12.0922 23.7964 12.7818C24.4859 13.4713 24.8609 14.4451 24.9214 15.7031Z" fill="#BBBBBB"/>
</svg>
