<svg width="24" height="24" viewBox="0 0 24 24" fill="none" xmlns="http://www.w3.org/2000/svg">
<g clip-path="url(#clip0_199_1496)">
<path d="M12.0006 12.5208C13.2544 12.5208 14.2708 11.5044 14.2708 10.2506C14.2708 8.99685 13.2544 7.98047 12.0006 7.98047C10.7469 7.98047 9.73047 8.99685 9.73047 10.2506C9.73047 11.5044 10.7469 12.5208 12.0006 12.5208Z" fill="white"/>
<path d="M12 0C5.37234 0 0 5.37234 0 12C0 18.6277 5.37234 24 12 24C18.6272 24 24 18.6277 24 12C24 5.37234 18.6277 0 12 0ZM13.5141 18.2137C12.7987 19.3036 11.2013 19.3036 10.4859 18.2137C8.92547 15.8344 6.71813 12.1364 6.71813 10.2506C6.71813 7.33359 9.08297 4.96875 12 4.96875C14.917 4.96875 17.2819 7.33359 17.2819 10.2506C17.2819 12.1364 15.0745 15.8344 13.5141 18.2137Z" fill="white"/>
</g>
<defs>
<clipPath id="clip0_199_1496">
<rect width="24" height="24" fill="white"/>
</clipPath>
</defs>
</svg>
