<svg width="24" height="24" viewBox="0 0 24 24" fill="none" xmlns="http://www.w3.org/2000/svg">
<path d="M20.484 3.51344C15.797 -1.17214 8.19902 -1.17101 3.51344 3.51602C-1.17214 8.20305 -1.17101 15.801 3.51602 20.4866C8.20305 25.1722 15.801 25.171 20.4866 20.484C21.6007 19.3695 22.4844 18.0465 23.0873 16.5905C23.6901 15.1345 24.0003 13.5741 24 11.9982C23.9998 10.4223 23.6892 8.86194 23.0859 7.40613C22.4826 5.95031 21.5985 4.62757 20.484 3.51344ZM18.1736 16.7159L18.172 16.7175V16.7135L17.564 17.3175C17.1774 17.709 16.6963 17.9942 16.1673 18.1455C15.6383 18.2969 15.0792 18.3093 14.544 18.1815C13.4474 17.8879 12.4048 17.4207 11.456 16.7975C10.5744 16.2341 9.75752 15.5755 9.01999 14.8335C8.3414 14.1598 7.73171 13.4202 7.19997 12.6255C6.61835 11.7704 6.15798 10.8389 5.83197 9.85746C5.64873 9.29217 5.62651 8.68703 5.76781 8.10983C5.90911 7.53264 6.20835 7.00619 6.63199 6.58947L7.34397 5.87749C7.54192 5.67864 7.86358 5.67794 8.06238 5.87589L8.06397 5.87749L10.312 8.12547C10.5108 8.32342 10.5115 8.64508 10.3135 8.84388L10.312 8.84547L8.99196 10.1655C8.61321 10.5401 8.56558 11.1354 8.87997 11.5655C9.35741 12.2207 9.88571 12.8373 10.46 13.4095C11.1003 14.0525 11.7963 14.6375 12.54 15.1575C12.9697 15.4572 13.5522 15.4067 13.924 15.0375L15.1999 13.7415C15.3979 13.5427 15.7195 13.542 15.9183 13.7399L15.9199 13.7415L18.172 15.9975C18.3708 16.1954 18.3715 16.517 18.1736 16.7159Z" fill="white"/>
</svg>
