<svg width="24" height="24" viewBox="0 0 24 24" fill="none" xmlns="http://www.w3.org/2000/svg">
<g clip-path="url(#clip0_199_1491)">
<path fill-rule="evenodd" clip-rule="evenodd" d="M12 0C18.6274 0 24 5.37258 24 12C24 18.6274 18.6274 24 12 24C5.37258 24 0 18.6274 0 12C0 5.37258 5.37258 0 12 0ZM5.37778 17.2153H18.6222C18.7237 17.2152 18.8245 17.1996 18.9212 17.1691L19.3727 17.0272L13.9175 11.9788L12.2722 13.2471C12.1941 13.3073 12.0983 13.34 11.9997 13.34C11.9011 13.34 11.8053 13.3073 11.7273 13.2471L10.0822 11.9788L4.6268 17.0272L5.07825 17.1691C5.17516 17.1997 5.27617 17.2153 5.37778 17.2153ZM9.36591 11.4262L4.38281 7.58395V16.0377L9.36591 11.4264V11.4262ZM12 12.3312L19.1926 6.78469H4.80713L12 12.3312ZM19.6172 16.0376V7.58395L14.6339 11.4264L19.6172 16.0376Z" fill="white"/>
</g>
<defs>
<clipPath id="clip0_199_1491">
<rect width="24" height="24" fill="white"/>
</clipPath>
</defs>
</svg>
