<svg width="24" height="24" viewBox="0 0 24 24" fill="none" xmlns="http://www.w3.org/2000/svg">
<path d="M17.6646 8.39255C17.5596 7.98346 17.2556 7.5171 16.8737 7.11755C16.4046 6.62664 15.8046 6.2271 15.2796 6.10982C13.1125 5.69516 10.8863 5.69516 8.71919 6.10982C7.76464 6.32255 6.56873 7.47346 6.33555 8.39255C5.94577 10.1664 5.94577 12.0037 6.33555 13.7776C6.52373 14.5221 7.34055 15.4139 8.14919 15.8421C8.3284 15.9407 8.52014 16.0146 8.71919 16.0616C8.73978 16.0652 8.75846 16.0759 8.77193 16.0918C8.7854 16.1078 8.7928 16.128 8.79282 16.1489V18.7671C8.79278 18.796 8.80143 18.8243 8.81766 18.8483C8.83388 18.8723 8.85693 18.8908 8.88381 18.9016C8.9107 18.9123 8.94019 18.9147 8.96846 18.9085C8.99673 18.9022 9.02247 18.8877 9.04237 18.8666L10.2874 17.5916L11.4546 16.3916C11.4629 16.3826 11.4731 16.3755 11.4844 16.3708C11.4957 16.3661 11.5079 16.3639 11.5201 16.3644C12.78 16.3983 14.04 16.2968 15.2783 16.0616C16.2328 15.8489 17.4287 14.698 17.6633 13.7776C18.0535 12.0038 18.054 10.1665 17.6646 8.39255ZM15.3137 13.9098C15.1367 14.3142 14.8321 14.6495 14.4465 14.8644C14.3258 14.9168 14.2001 14.957 14.0715 14.9844C13.9256 14.9394 13.7865 14.9107 13.6624 14.8562C12.6307 14.4534 11.6707 13.8871 10.8192 13.1789C10.5662 12.9618 10.3279 12.7281 10.106 12.4794C9.55947 11.8501 9.10074 11.1496 8.74237 10.3971C8.56782 10.0426 8.42055 9.67301 8.27055 9.30619C8.13419 8.9721 8.33601 8.62437 8.54328 8.37619C8.74568 8.14423 8.99536 7.95826 9.27555 7.83073C9.37391 7.7807 9.48675 7.76695 9.59425 7.79189C9.70174 7.81683 9.797 7.87887 9.86328 7.9671C10.209 8.3591 10.5138 8.78541 10.7728 9.23937C10.8547 9.37161 10.8826 9.53023 10.8509 9.68248C10.8192 9.83473 10.7302 9.969 10.6024 10.0576C10.5342 10.1039 10.466 10.1598 10.4074 10.2116C10.3495 10.2549 10.2997 10.308 10.2601 10.3685C10.2257 10.4248 10.2048 10.4884 10.1992 10.5542C10.1935 10.6199 10.2031 10.6861 10.2274 10.7476C10.4906 11.4716 10.8901 12.0744 11.4874 12.4985C11.6895 12.6418 11.9072 12.7617 12.1365 12.8557C12.286 12.9373 12.4543 12.9782 12.6246 12.9744C12.9219 12.9389 13.0201 12.6116 13.2274 12.4412C13.3227 12.3635 13.4405 12.3186 13.5633 12.3132C13.6861 12.3078 13.8074 12.3422 13.9092 12.4112C14.1301 12.5476 14.3428 12.7003 14.5556 12.8516C14.7659 12.9948 14.9685 13.1491 15.1624 13.3139C15.2529 13.3802 15.3176 13.4759 15.3452 13.5847C15.3728 13.6934 15.3617 13.8084 15.3137 13.9098ZM13.3556 10.6371C13.3472 10.6147 13.3417 10.5913 13.3392 10.5676C13.3321 10.4758 13.3184 10.3846 13.2983 10.2948C13.2581 10.1124 13.1548 9.95013 13.0065 9.83664C12.9346 9.78582 12.8549 9.74712 12.7706 9.7221C12.6628 9.6921 12.5496 9.70028 12.4433 9.67437C12.3907 9.66505 12.344 9.63528 12.3133 9.59158C12.2826 9.54787 12.2705 9.4938 12.2796 9.44119C12.2895 9.39054 12.3175 9.34525 12.3585 9.31386C12.3994 9.28246 12.4504 9.26712 12.5019 9.27073C13.1265 9.3171 13.5928 9.6171 13.7128 10.2866C13.7253 10.3488 13.7339 10.4116 13.7387 10.4748C13.7477 10.5313 13.7477 10.5888 13.7387 10.6453C13.7312 10.6799 13.7134 10.7115 13.6876 10.7358C13.6618 10.7602 13.6292 10.7761 13.5942 10.7816H13.5642C13.5182 10.7846 13.4726 10.7719 13.4347 10.7456C13.3969 10.7194 13.369 10.6812 13.3556 10.6371ZM13.1565 8.94755C12.9463 8.84882 12.7231 8.78041 12.4937 8.74437C12.3928 8.72801 12.2919 8.71846 12.191 8.70483C12.1646 8.70352 12.1388 8.69679 12.1151 8.68506C12.0914 8.67332 12.0704 8.65682 12.0534 8.63661C12.0364 8.61639 12.0237 8.59288 12.0162 8.56755C12.0086 8.54221 12.0064 8.5156 12.0096 8.48937C12.0098 8.46276 12.0157 8.43649 12.0267 8.41228C12.0377 8.38806 12.0537 8.36644 12.0737 8.34882C12.0936 8.33119 12.117 8.31797 12.1424 8.31C12.1678 8.30202 12.1946 8.29949 12.221 8.30255C12.6214 8.318 13.0137 8.42037 13.3706 8.60255C13.8062 8.8215 14.1616 9.17222 14.3865 9.60483C14.513 9.85819 14.5977 10.1303 14.6374 10.4107C14.6448 10.4472 14.6503 10.4841 14.6537 10.5212C14.6606 10.603 14.6633 10.6835 14.6701 10.7857V10.8239C14.6691 10.8644 14.6636 10.9046 14.6537 10.9439C14.6417 10.9833 14.6178 11.018 14.5853 11.0433C14.5528 11.0686 14.5134 11.0833 14.4722 11.0853C14.4311 11.0874 14.3904 11.0768 14.3555 11.0549C14.3206 11.033 14.2934 11.0009 14.2774 10.963C14.2622 10.908 14.2553 10.851 14.2569 10.7939C14.2599 10.4894 14.1996 10.1875 14.0796 9.90755C14.0525 9.84594 14.022 9.78585 13.9883 9.72755C13.7927 9.39221 13.5037 9.12115 13.1565 8.94755ZM15.4092 11.4621C15.2728 11.4621 15.206 11.3462 15.1965 11.2194C15.1787 10.9698 15.1651 10.7189 15.131 10.4707C15.0719 10.0516 14.926 9.64944 14.7028 9.28983C14.4732 8.9158 14.1677 8.59413 13.8059 8.34561C13.4442 8.0971 13.0343 7.92726 12.6028 7.8471C12.4065 7.81301 12.206 7.80483 12.0083 7.78301C11.8828 7.77073 11.7178 7.76255 11.6906 7.60573C11.6869 7.57568 11.6896 7.5452 11.6986 7.51628C11.7075 7.48736 11.7224 7.46064 11.7424 7.43787C11.7623 7.4151 11.7868 7.39678 11.8143 7.38412C11.8418 7.37145 11.8716 7.36473 11.9019 7.36437H12.0478C12.6358 7.3767 13.212 7.53216 13.7264 7.81729C14.2408 8.10242 14.678 8.50862 15.0001 9.00073C15.2582 9.40197 15.4334 9.85077 15.5156 10.3207C15.5674 10.6166 15.5865 10.9194 15.6096 11.2194C15.6141 11.2487 15.6123 11.2787 15.6043 11.3073C15.5964 11.336 15.5825 11.3626 15.5636 11.3855C15.5447 11.4084 15.5212 11.4271 15.4946 11.4403C15.468 11.4535 15.4389 11.4609 15.4092 11.4621Z" fill="white"/>
<path d="M12 0C9.62663 0 7.30655 0.703788 5.33316 2.02236C3.35977 3.34094 1.8217 5.21509 0.913451 7.4078C0.00519945 9.60051 -0.232441 12.0133 0.230582 14.3411C0.693605 16.6689 1.83649 18.8071 3.51472 20.4853C5.19295 22.1635 7.33115 23.3064 9.65892 23.7694C11.9867 24.2324 14.3995 23.9948 16.5922 23.0866C18.7849 22.1783 20.6591 20.6402 21.9776 18.6668C23.2962 16.6935 24 14.3734 24 12C24 8.8174 22.7357 5.76516 20.4853 3.51472C18.2349 1.26428 15.1826 0 12 0ZM18.9314 14.0632V14.0795C18.5823 15.4964 17.0032 17.0141 15.5536 17.3305H15.5373C14.3715 17.5549 13.1872 17.6685 12 17.67C11.6536 17.67 11.3046 17.6591 10.9582 17.6386L9.35728 19.3036C9.26928 19.3941 9.15634 19.4563 9.03285 19.4823C8.90937 19.5083 8.78093 19.497 8.66391 19.4498C8.54689 19.4025 8.44659 19.3215 8.37579 19.217C8.30499 19.1126 8.2669 18.9894 8.26637 18.8632V17.2827C7.8903 17.171 7.53247 17.0051 7.2041 16.7905C6.19773 16.1509 5.32501 15.0886 5.0741 14.0795V14.0632C4.64184 12.1008 4.64184 10.0678 5.0741 8.10545V8.08773C5.42319 6.67227 7.00091 5.15455 8.45455 4.83818H8.47091C10.8051 4.39091 13.2031 4.39091 15.5373 4.83818H15.5536C16.3364 5.00864 17.1559 5.52955 17.7996 6.20182C18.345 6.76773 18.7705 7.44273 18.9314 8.09318V8.11091C19.3628 10.0715 19.3628 12.1025 18.9314 14.0632Z" fill="white"/>
</svg>
